<?xml version="1.0" encoding="UTF-8"?>
<svg id="Layer_1" xmlns="http://www.w3.org/2000/svg" xmlns:xlink="http://www.w3.org/1999/xlink" version="1.1" viewBox="0 0 48 48">
  <!-- Generator: Adobe Illustrator 29.7.1, SVG Export Plug-In . SVG Version: 2.1.1 Build 8)  -->
  <defs>
    <style>
      .st0 {
        fill: url(#radial-gradient);
      }

      .st1 {
        fill: url(#radial-gradient1);
      }

      .st2 {
        fill: url(#radial-gradient2);
      }
    </style>
    <radialGradient id="radial-gradient" cx="-21.25" cy="7.22" fx="-21.25" fy="7.22" r="43.28" gradientTransform="translate(41.4 21.66) rotate(29.32) scale(1.05 .99) skewX(7.89)" gradientUnits="userSpaceOnUse">
      <stop offset="0" stop-color="#fff"/>
      <stop offset=".13" stop-color="#fdd72d"/>
      <stop offset=".62" stop-color="#c93727"/>
    </radialGradient>
    <radialGradient id="radial-gradient1" cx="20.61" cy="38.34" fx="20.61" fy="38.34" r="36.28" gradientUnits="userSpaceOnUse">
      <stop offset="0" stop-color="#fff"/>
      <stop offset=".62" stop-color="#3e403e"/>
    </radialGradient>
    <radialGradient id="radial-gradient2" cx="-21.3" cy="20.7" fx="-21.3" fy="20.7" r="43.36" gradientTransform="translate(41.4 21.66) rotate(29.32) scale(1.05 .99) skewX(7.89)" gradientUnits="userSpaceOnUse">
      <stop offset="0" stop-color="#fff"/>
      <stop offset=".19" stop-color="#9d9d9d"/>
      <stop offset=".62" stop-color="#3e403e"/>
    </radialGradient>
  </defs>
  <path class="st0" d="M6.51,21.43c10.1-8.19,26.83,3.66,34.87-4.02.78-.75,1.41-1.65,1.89-2.62l3.46-7.04c-6.81,6.09-20.38-1.83-29.87,1.31-2.02.67-4.78,1.86-7.19,5.54l-3.16,6.84Z"/>
  <path class="st1" d="M10.91,38.31c-3.03.4-11.76-.22-8.88-4.9l3.45-8.61c-4.88,12.63,15.46-7.45,10.58,5.18l-3.88,7.8c-.24.48-.76.47-1.28.53Z"/>
  <path class="st2" d="M1.52,34.54c11.04-12.27,28.96,4.41,37.08-8.14l3.47-7.17c-7.86,7.15-25.7-5.4-36.2,4.86-.36.36-.64.79-.82,1.27l-3.52,9.18Z"/>
</svg>